<?xml version="1.0" standalone="no"?><svg xmlns="http://www.w3.org/2000/svg" viewBox="0 0 1440 320"><path fill="#0C3DF8" fill-opacity="1" d="M0,160L30,160C60,160,120,160,180,176C240,192,300,224,360,234.7C420,245,480,235,540,192C600,149,660,75,720,37.3C780,0,840,0,900,5.3C960,11,1020,21,1080,37.3C1140,53,1200,75,1260,80C1320,85,1380,75,1410,69.3L1440,64L1440,320L1410,320C1380,320,1320,320,1260,320C1200,320,1140,320,1080,320C1020,320,960,320,900,320C840,320,780,320,720,320C660,320,600,320,540,320C480,320,420,320,360,320C300,320,240,320,180,320C120,320,60,320,30,320L0,320Z"></path></svg>